<?xml version="1.0" encoding="UTF-8"?> <svg xmlns="http://www.w3.org/2000/svg" width="28" height="23" viewBox="0 0 28 23" fill="none"> <path d="M27.735 14.8359V14.5002H27.6475L27.5463 14.7308L27.4456 14.5002H27.3575V14.8359H27.4197V14.5828L27.5144 14.8013H27.5787L27.6734 14.5822V14.8359H27.735ZM27.1798 14.8359V14.5575H27.292V14.5008H27.0059V14.5575H27.1181V14.8359H27.1798Z" fill="#0099DF"></path> <path d="M17.7861 16.2793H10.2129V2.66895H17.7861V16.2793Z" fill="#6C6BBD"></path> <path d="M10.6981 9.47349C10.6981 6.71256 11.9908 4.25321 14.0039 2.6683C12.5318 1.50933 10.6739 0.817591 8.6548 0.817591C3.87477 0.817591 0 4.69291 0 9.47349C0 14.2541 3.87477 18.1294 8.6548 18.1294C10.6739 18.1294 12.5318 17.4376 14.0039 16.2787C11.9908 14.6938 10.6981 12.2344 10.6981 9.47349Z" fill="#EB001B"></path> <path d="M28.0005 9.47349C28.0005 14.2541 24.1257 18.1294 19.3457 18.1294C17.3266 18.1294 15.4687 17.4376 13.9961 16.2787C16.0097 14.6938 17.3024 12.2344 17.3024 9.47349C17.3024 6.71256 16.0097 4.25321 13.9961 2.6683C15.4687 1.50933 17.3266 0.817591 19.3457 0.817591C24.1257 0.817591 28.0005 4.69291 28.0005 9.47349Z" fill="#0099DF"></path> <path d="M20.3396 20.1232C20.4403 20.1232 20.585 20.1424 20.6956 20.1859L20.5416 20.657C20.4359 20.6135 20.3302 20.5992 20.229 20.5992C19.9021 20.5992 19.7386 20.8105 19.7386 21.1902V22.4791H19.2384V20.1809H19.7337V20.4599C19.8636 20.258 20.0512 20.1232 20.3396 20.1232ZM18.4916 20.6377H17.6744V21.6761C17.6744 21.9067 17.7559 22.0608 18.0063 22.0608C18.1361 22.0608 18.2996 22.0173 18.4482 21.9309L18.5923 22.3585C18.4338 22.4691 18.184 22.5368 17.9677 22.5368C17.3761 22.5368 17.1698 22.2193 17.1698 21.6855V20.6377H16.7031V20.1809H17.1698V19.4837H17.6744V20.1809H18.4916V20.6377ZM12.092 21.128C12.1454 20.7962 12.3468 20.57 12.7029 20.57C13.0248 20.57 13.2317 20.772 13.2845 21.128H12.092ZM13.804 21.33C13.7991 20.6135 13.3566 20.1232 12.7122 20.1232C12.0392 20.1232 11.5681 20.6135 11.5681 21.33C11.5681 22.0603 12.0584 22.5363 12.7463 22.5363C13.0925 22.5363 13.4095 22.4499 13.6885 22.2144L13.443 21.844C13.251 21.9981 13.0055 22.0845 12.775 22.0845C12.453 22.0845 12.1597 21.9353 12.0876 21.5221H13.7941C13.7991 21.4593 13.804 21.3971 13.804 21.33ZM16.0009 20.7676C15.8617 20.6806 15.5783 20.57 15.2849 20.57C15.0109 20.57 14.8474 20.6713 14.8474 20.8397C14.8474 20.9932 15.0202 21.0367 15.2365 21.0653L15.4721 21.0989C15.9723 21.1715 16.275 21.3828 16.275 21.7868C16.275 22.2243 15.8903 22.5368 15.2272 22.5368C14.8518 22.5368 14.5057 22.4405 14.2316 22.2386L14.4672 21.8489C14.6356 21.9788 14.886 22.0894 15.2321 22.0894C15.5733 22.0894 15.756 21.9887 15.756 21.8104C15.756 21.6811 15.6261 21.6085 15.3521 21.5705L15.1165 21.5369C14.602 21.4643 14.323 21.2337 14.323 20.8589C14.323 20.4022 14.6983 20.1232 15.28 20.1232C15.6454 20.1232 15.9772 20.2052 16.2172 20.3636L16.0009 20.7676ZM22.1672 20.5981C22.0643 20.5981 21.9691 20.6162 21.8805 20.652C21.7924 20.6883 21.7159 20.739 21.6515 20.8039C21.5871 20.8688 21.5365 20.947 21.4996 21.0378C21.4628 21.1286 21.4446 21.2287 21.4446 21.3377C21.4446 21.4472 21.4628 21.5468 21.4996 21.6376C21.5365 21.7284 21.5871 21.8066 21.6515 21.8715C21.7159 21.9364 21.7924 21.9871 21.8805 22.0234C21.9691 22.0597 22.0643 22.0773 22.1672 22.0773C22.2701 22.0773 22.3658 22.0597 22.4539 22.0234C22.5425 21.9871 22.6195 21.9364 22.6839 21.8715C22.7494 21.8066 22.8 21.7284 22.8375 21.6376C22.8743 21.5468 22.8925 21.4472 22.8925 21.3377C22.8925 21.2287 22.8743 21.1286 22.8375 21.0378C22.8 20.947 22.7494 20.8688 22.6839 20.8039C22.6195 20.739 22.5425 20.6883 22.4539 20.652C22.3658 20.6162 22.2701 20.5981 22.1672 20.5981ZM22.1672 20.1232C22.3455 20.1232 22.5106 20.154 22.6625 20.2162C22.8144 20.2778 22.9459 20.3631 23.0565 20.4715C23.1677 20.5799 23.2541 20.7081 23.3168 20.8556C23.3795 21.0037 23.4109 21.1644 23.4109 21.3377C23.4109 21.5111 23.3795 21.6717 23.3168 21.8198C23.2541 21.9673 23.1677 22.096 23.0565 22.2044C22.9459 22.3129 22.8144 22.3976 22.6625 22.4598C22.5106 22.5214 22.3455 22.5522 22.1672 22.5522C21.9889 22.5522 21.8238 22.5214 21.6719 22.4598C21.52 22.3976 21.3896 22.3129 21.2795 22.2044C21.1695 22.096 21.0831 21.9673 21.0203 21.8198C20.9576 21.6717 20.9262 21.5111 20.9262 21.3377C20.9262 21.1644 20.9576 21.0037 21.0203 20.8556C21.0831 20.7081 21.1695 20.5799 21.2795 20.4715C21.3896 20.3631 21.52 20.2778 21.6719 20.2162C21.8238 20.154 21.9889 20.1232 22.1672 20.1232ZM9.17094 21.33C9.17094 20.9261 9.43565 20.5942 9.86819 20.5942C10.2815 20.5942 10.5605 20.9118 10.5605 21.33C10.5605 21.7482 10.2815 22.0652 9.86819 22.0652C9.43565 22.0652 9.17094 21.7339 9.17094 21.33ZM11.0316 21.33V20.1809H10.5319V20.4599C10.3728 20.253 10.1329 20.1232 9.80601 20.1232C9.16159 20.1232 8.65695 20.6278 8.65695 21.33C8.65695 22.0316 9.16159 22.5368 9.80601 22.5368C10.1329 22.5368 10.3728 22.407 10.5319 22.2V22.4791H11.0316V21.33ZM8.2145 22.4791V21.0367C8.2145 20.4935 7.86835 20.1281 7.31088 20.1232C7.01756 20.1182 6.71434 20.2096 6.50302 20.532C6.34453 20.2772 6.09413 20.1232 5.74303 20.1232C5.49814 20.1232 5.25766 20.1952 5.07 20.4644V20.1809H4.57031V22.4791H5.07495V21.2051C5.07495 20.8061 5.29618 20.5942 5.63737 20.5942C5.96921 20.5942 6.13761 20.8105 6.13761 21.2001V22.4791H6.64225V21.2051C6.64225 20.8061 6.87338 20.5942 7.20467 20.5942C7.54642 20.5942 7.70986 20.8105 7.70986 21.2001V22.4791H8.2145Z" fill="white"></path> <path d="M23.9487 22.3065V22.3632H24.001C24.0126 22.3632 24.0225 22.3605 24.0291 22.3561C24.0362 22.3517 24.0401 22.344 24.0401 22.3346C24.0401 22.3252 24.0362 22.3181 24.0291 22.3137C24.0225 22.3087 24.0126 22.3065 24.001 22.3065H23.9487ZM24.0015 22.2669C24.0285 22.2669 24.0494 22.273 24.0643 22.2851C24.0791 22.2972 24.0863 22.3137 24.0863 22.3346C24.0863 22.3522 24.0808 22.3665 24.0687 22.3781C24.0571 22.3891 24.0401 22.3962 24.0186 22.399L24.0879 22.4788H24.034L23.9696 22.3995H23.9487V22.4788H23.9036V22.2669H24.0015ZM23.9878 22.5514C24.0126 22.5514 24.0357 22.547 24.0566 22.5377C24.078 22.5283 24.0968 22.5157 24.1127 22.4997C24.1287 22.4837 24.1413 22.465 24.1507 22.443C24.1595 22.4215 24.1644 22.3984 24.1644 22.3737C24.1644 22.3489 24.1595 22.3258 24.1507 22.3043C24.1413 22.2829 24.1287 22.2636 24.1127 22.2476C24.0968 22.2317 24.078 22.219 24.0566 22.2102C24.0357 22.2009 24.0126 22.1965 23.9878 22.1965C23.963 22.1965 23.9394 22.2009 23.9179 22.2102C23.8959 22.219 23.8766 22.2317 23.8607 22.2476C23.8447 22.2636 23.8321 22.2829 23.8232 22.3043C23.8139 22.3258 23.8095 22.3489 23.8095 22.3737C23.8095 22.3984 23.8139 22.4215 23.8232 22.443C23.8321 22.465 23.8447 22.4837 23.8607 22.4997C23.8766 22.5157 23.8959 22.5283 23.9179 22.5377C23.9394 22.547 23.963 22.5514 23.9878 22.5514ZM23.9878 22.1453C24.0203 22.1453 24.05 22.1513 24.078 22.1634C24.1067 22.175 24.1309 22.1915 24.1523 22.2124C24.1732 22.2328 24.1898 22.257 24.2019 22.2851C24.214 22.3126 24.22 22.3423 24.22 22.3737C24.22 22.405 24.214 22.4348 24.2019 22.4623C24.1898 22.4898 24.1732 22.514 24.1523 22.5344C24.1309 22.5553 24.1067 22.5718 24.078 22.5839C24.05 22.596 24.0203 22.6021 23.9878 22.6021C23.9548 22.6021 23.9245 22.596 23.8959 22.5839C23.8673 22.5718 23.8425 22.5553 23.8216 22.5344C23.8007 22.514 23.7842 22.4898 23.7721 22.4623C23.76 22.4348 23.7539 22.405 23.7539 22.3737C23.7539 22.3423 23.76 22.3126 23.7721 22.2851C23.7842 22.257 23.8007 22.2328 23.8216 22.2124C23.8425 22.1915 23.8673 22.175 23.8959 22.1634C23.9245 22.1513 23.9548 22.1453 23.9878 22.1453Z" fill="#4B4B4B"></path> </svg> 