<?xml version="1.0" encoding="UTF-8"?> <svg xmlns="http://www.w3.org/2000/svg" width="64" height="16" viewBox="0 0 64 16" fill="none"> <path d="M49.1782 4.58789H45.8025C45.6039 4.58789 45.4053 4.77778 45.306 4.96768L43.916 13.323C43.916 13.5129 44.0153 13.6078 44.2139 13.6078H46.001C46.1996 13.6078 46.2989 13.5129 46.2989 13.323L46.696 10.9493C46.696 10.7594 46.8946 10.5695 47.1925 10.5695H48.2846C50.5682 10.5695 51.8589 9.52511 52.1568 7.43629C52.3554 6.58177 52.1568 5.8222 51.7596 5.34746C51.1639 4.87273 50.2703 4.58789 49.1782 4.58789ZM49.5753 7.72113C49.3768 8.86049 48.4832 8.86049 47.5896 8.86049H46.9939L47.391 6.67672C47.391 6.58177 47.4903 6.48682 47.6889 6.48682H47.8875C48.4832 6.48682 49.0789 6.48682 49.3768 6.86661C49.5753 6.96155 49.5753 7.24639 49.5753 7.72113Z" fill="#139AD6"></path> <path d="M24.854 4.58789H21.4782C21.2797 4.58789 21.0811 4.77778 20.9818 4.96768L19.5918 13.323C19.5918 13.5129 19.6911 13.6078 19.8897 13.6078H21.4782C21.6768 13.6078 21.8754 13.4179 21.9747 13.228L22.3718 10.9493C22.3718 10.7594 22.5704 10.5695 22.8683 10.5695H23.9604C26.244 10.5695 27.5347 9.52511 27.8326 7.43629C28.0311 6.58177 27.8326 5.8222 27.4354 5.34746C26.8397 4.87273 26.0454 4.58789 24.854 4.58789ZM25.2511 7.72113C25.0526 8.86049 24.159 8.86049 23.2654 8.86049H22.769L23.1661 6.67672C23.1661 6.58177 23.2654 6.48682 23.464 6.48682H23.6625C24.2583 6.48682 24.854 6.48682 25.1518 6.86661C25.2511 6.96155 25.3504 7.24639 25.2511 7.72113Z" fill="white"></path> <path d="M35.0803 7.62593H33.4918C33.3925 7.62593 33.1939 7.72088 33.1939 7.81582L33.0946 8.29056L32.9953 8.10067C32.5982 7.62593 31.9032 7.43604 31.1089 7.43604C29.3217 7.43604 27.7331 8.7653 27.4352 10.5693C27.2367 11.5188 27.5345 12.3733 28.031 12.943C28.5274 13.5127 29.2224 13.7026 30.116 13.7026C31.6053 13.7026 32.3996 12.848 32.3996 12.848L32.3003 13.3228C32.3003 13.5127 32.3996 13.6076 32.5982 13.6076H34.0875C34.286 13.6076 34.4846 13.4177 34.5839 13.2278L35.4775 7.91077C35.3782 7.81582 35.1796 7.62593 35.0803 7.62593ZM32.7967 10.6642C32.5982 11.5188 31.9032 12.1834 30.9103 12.1834C30.4139 12.1834 30.0167 11.9935 29.8181 11.8036C29.6196 11.5188 29.5203 11.139 29.5203 10.6642C29.6196 9.80972 30.4139 9.14509 31.3074 9.14509C31.8039 9.14509 32.1017 9.33498 32.3996 9.52488C32.6975 9.80972 32.7967 10.2845 32.7967 10.6642Z" fill="white"></path> <path d="M59.3068 7.62642H57.7183C57.619 7.62642 57.4204 7.72136 57.4204 7.81631L57.3211 8.29104L57.2218 8.10115C56.8247 7.62642 56.1297 7.43652 55.3354 7.43652C53.5482 7.43652 51.9597 8.76577 51.6618 10.5697C51.4632 11.5192 51.7611 12.3737 52.2575 12.9434C52.754 13.5131 53.449 13.703 54.3425 13.703C55.8318 13.703 56.6261 12.8485 56.6261 12.8485L56.5268 13.3232C56.5268 13.5131 56.6261 13.608 56.8247 13.608H58.314C58.5125 13.608 58.7111 13.4181 58.8104 13.2282L59.704 7.91125C59.6047 7.81631 59.5054 7.62642 59.3068 7.62642ZM57.0233 10.6647C56.8247 11.5192 56.1297 12.1838 55.1368 12.1838C54.6404 12.1838 54.2432 11.9939 54.0447 11.804C53.8461 11.5192 53.7468 11.1394 53.7468 10.6647C53.8461 9.81018 54.6404 9.14556 55.534 9.14556C56.0304 9.14556 56.3283 9.33545 56.6261 9.52534C57.0233 9.81018 57.1225 10.2849 57.0233 10.6647Z" fill="#139AD6"></path> <path d="M43.7174 7.62598H42.0295C41.8309 7.62598 41.7316 7.72092 41.6324 7.81587L39.448 11.044L38.4552 8.00576C38.3559 7.81587 38.2566 7.72092 37.9587 7.72092H36.3701C36.1716 7.72092 36.0723 7.91081 36.0723 8.10071L37.8594 13.1328L36.1716 15.4115C36.0723 15.6014 36.1716 15.8863 36.3701 15.8863H37.9587C38.1573 15.8863 38.2566 15.7913 38.3559 15.6964L43.8167 8.19565C44.1145 7.91081 43.916 7.62598 43.7174 7.62598Z" fill="white"></path> <path d="M61.1928 4.87265L59.8027 13.4178C59.8027 13.6077 59.902 13.7027 60.1006 13.7027H61.4906C61.6892 13.7027 61.8878 13.5128 61.9871 13.3229L63.3771 4.96759C63.3771 4.7777 63.2778 4.68276 63.0792 4.68276H61.4906C61.3913 4.58781 61.292 4.68276 61.1928 4.87265Z" fill="#139AD6"></path> <path d="M12.2442 1.73945C11.5491 0.979882 10.2584 0.600098 8.47125 0.600098H3.50692C3.20905 0.600098 2.91119 0.884935 2.81191 1.16977L0.826172 13.6077C0.826172 13.8926 1.02475 14.0825 1.22332 14.0825H4.30121L5.0955 9.43011V9.62C5.19479 9.33516 5.49265 9.05032 5.79051 9.05032H7.27981C10.1591 9.05032 12.3434 7.91097 13.0384 4.77774C13.0384 4.68279 13.0384 4.58784 13.0384 4.4929C12.9392 4.4929 12.9392 4.4929 13.0384 4.4929C13.1377 3.25859 12.9392 2.49902 12.2442 1.73945Z" fill="white"></path> <path d="M12.9378 4.49268C12.9378 4.58762 12.9378 4.68257 12.9378 4.77752C12.2427 8.00569 10.0584 9.05009 7.17913 9.05009H5.68983C5.39197 9.05009 5.09411 9.33493 4.99482 9.61977L4.00195 15.4115C4.00195 15.6014 4.10124 15.7913 4.3991 15.7913H6.98055C7.27841 15.7913 7.57627 15.6014 7.57627 15.3165V15.2216L8.07271 12.2783V12.0884C8.07271 11.8035 8.37057 11.6136 8.66843 11.6136H9.06557C11.5477 11.6136 13.5335 10.6642 14.0299 7.81579C14.2285 6.67644 14.1292 5.63203 13.5335 4.96741C13.4342 4.77751 13.2356 4.58762 12.9378 4.49268Z" fill="#139AD6"></path> <path d="M12.2444 4.20769C12.1451 4.20769 12.0458 4.11274 11.9465 4.11274C11.8472 4.11274 11.7479 4.11274 11.6487 4.0178C11.2515 3.92285 10.8544 3.92285 10.3579 3.92285H6.48572C6.38643 3.92285 6.28715 3.92285 6.18786 4.0178C5.98929 4.11274 5.89 4.30264 5.89 4.49253L5.0957 9.42974V9.61963C5.19499 9.33479 5.49285 9.04995 5.79071 9.04995H7.28002C10.1593 9.04995 12.3437 7.9106 13.0387 4.77737C13.0387 4.68242 13.0387 4.58747 13.138 4.49253C12.9394 4.39758 12.8401 4.30264 12.6415 4.30264C12.3437 4.20769 12.3437 4.20769 12.2444 4.20769Z" fill="white"></path> </svg> 