<?xml version="1.0" encoding="UTF-8"?> <svg xmlns="http://www.w3.org/2000/svg" width="29" height="22" viewBox="0 0 29 22" fill="none"> <path d="M5.66718 21.4769V20.0816C5.67551 19.9643 5.65812 19.8466 5.61615 19.7363C5.57418 19.626 5.5086 19.5257 5.42377 19.4421C5.33895 19.3585 5.23683 19.2935 5.12423 19.2514C5.01162 19.2093 4.89111 19.1911 4.77072 19.198C4.61313 19.1879 4.45567 19.2193 4.31475 19.2888C4.17384 19.3583 4.05465 19.4635 3.96963 19.5933C3.89212 19.4674 3.78123 19.3642 3.64863 19.2946C3.51604 19.2251 3.36665 19.1917 3.21622 19.198C3.0851 19.1915 2.95451 19.2186 2.83742 19.2765C2.72032 19.3344 2.62077 19.4212 2.54865 19.5282V19.2538H2.05273V21.4769H2.55342V20.2537C2.54277 20.1777 2.54947 20.1003 2.57304 20.0271C2.59661 19.9539 2.63647 19.8867 2.68977 19.8303C2.74308 19.7738 2.8085 19.7296 2.88137 19.7007C2.95425 19.6718 3.03276 19.6589 3.11132 19.6631C3.44034 19.6631 3.60723 19.8723 3.60723 20.2491V21.4862H4.10791V20.2537C4.0977 20.1778 4.1047 20.1006 4.12844 20.0275C4.15217 19.9545 4.19205 19.8875 4.24526 19.8311C4.29847 19.7748 4.36372 19.7306 4.43638 19.7015C4.50905 19.6725 4.58737 19.6593 4.66581 19.6631C5.00437 19.6631 5.16649 19.8723 5.16649 20.2491V21.4862L5.66718 21.4769ZM13.0749 19.2538H12.2595V18.5794H11.7588V19.2538H11.3058V19.6956H11.7683V20.7188C11.7683 21.235 11.9734 21.542 12.5599 21.542C12.779 21.5427 12.9939 21.483 13.1798 21.3699L13.0367 20.956C12.9037 21.0333 12.7528 21.0765 12.598 21.0815C12.3596 21.0815 12.269 20.9327 12.269 20.7095V19.6956H13.0796L13.0749 19.2538ZM17.3044 19.198C17.1835 19.1945 17.0639 19.2229 16.9582 19.2802C16.8524 19.3375 16.7645 19.4216 16.7036 19.5235V19.2538H16.2125V21.4769H16.7084V20.2305C16.7084 19.863 16.8705 19.6584 17.1852 19.6584C17.2913 19.657 17.3966 19.676 17.4952 19.7142L17.6478 19.2491C17.5345 19.2096 17.4152 19.1892 17.2949 19.1887L17.3044 19.198ZM10.91 19.4305C10.6293 19.2677 10.3066 19.187 9.98019 19.198C9.40321 19.198 9.02651 19.4677 9.02651 19.9095C9.02651 20.2723 9.30308 20.4955 9.81329 20.5653L10.0517 20.5979C10.3235 20.6351 10.4523 20.7048 10.4523 20.8304C10.4523 21.0025 10.2711 21.1001 9.9325 21.1001C9.66018 21.1078 9.39313 21.0259 9.17433 20.8676L8.93591 21.2443C9.22478 21.441 9.57078 21.5421 9.92297 21.5327C10.581 21.5327 10.9625 21.2304 10.9625 20.8071C10.9625 20.3839 10.6621 20.2118 10.1662 20.1421L9.92773 20.1095C9.71316 20.0816 9.54149 20.0398 9.54149 19.8909C9.54149 19.7421 9.70362 19.6305 9.97542 19.6305C10.2266 19.6333 10.4729 19.699 10.6907 19.8212L10.91 19.4305ZM24.1924 19.198C24.0715 19.1945 23.9518 19.2229 23.8461 19.2802C23.7404 19.3375 23.6524 19.4216 23.5916 19.5235V19.2538H23.1004V21.4769H23.5963V20.2305C23.5963 19.863 23.7585 19.6584 24.0732 19.6584C24.1792 19.657 24.2846 19.676 24.3831 19.7142L24.5357 19.2491C24.4224 19.2096 24.3031 19.1892 24.1828 19.1887L24.1924 19.198ZM17.8027 20.3607C17.7968 20.5169 17.8244 20.6726 17.8838 20.8178C17.9431 20.963 18.0329 21.0946 18.1473 21.204C18.2618 21.3135 18.3984 21.3984 18.5485 21.4534C18.6985 21.5084 18.8586 21.5322 19.0187 21.5234C19.3164 21.5381 19.6091 21.4436 19.8388 21.2583L19.6004 20.8676C19.429 20.9951 19.2199 21.0652 19.0044 21.0676C18.8211 21.0531 18.6501 20.9719 18.5254 20.84C18.4007 20.7082 18.3315 20.5354 18.3315 20.356C18.3315 20.1767 18.4007 20.0039 18.5254 19.872C18.6501 19.7402 18.8211 19.6589 19.0044 19.6445C19.2199 19.6468 19.429 19.7169 19.6004 19.8444L19.8388 19.4538C19.6091 19.2685 19.3164 19.1739 19.0187 19.1887C18.8586 19.1798 18.6985 19.2037 18.5485 19.2587C18.3984 19.3136 18.2618 19.3986 18.1473 19.508C18.0329 19.6175 17.9431 19.749 17.8838 19.8942C17.8244 20.0394 17.7968 20.1951 17.8027 20.3514V20.3607ZM22.4471 20.3607V19.2538H21.9512V19.5235C21.867 19.4178 21.7582 19.3332 21.6339 19.2766C21.5095 19.22 21.3731 19.193 21.236 19.198C20.9198 19.198 20.6166 19.3205 20.393 19.5385C20.1695 19.7566 20.0439 20.0523 20.0439 20.3607C20.0439 20.669 20.1695 20.9648 20.393 21.1828C20.6166 21.4009 20.9198 21.5234 21.236 21.5234C21.3731 21.5283 21.5095 21.5014 21.6339 21.4447C21.7582 21.3881 21.867 21.3035 21.9512 21.1978V21.4676H22.4471V20.3607ZM20.6018 20.3607C20.6097 20.2298 20.6567 20.1041 20.7369 19.9989C20.8172 19.8938 20.9272 19.8138 21.0535 19.7689C21.1797 19.724 21.3167 19.716 21.4475 19.7461C21.5783 19.7761 21.6973 19.8428 21.7897 19.9379C21.8822 20.0331 21.9441 20.1525 21.9678 20.2815C21.9916 20.4106 21.9761 20.5435 21.9233 20.6641C21.8705 20.7847 21.7828 20.8875 21.6708 20.96C21.5589 21.0326 21.4276 21.0716 21.2932 21.0722C21.1988 21.0734 21.1052 21.0555 21.0182 21.0197C20.9312 20.9838 20.8528 20.9308 20.7879 20.864C20.7229 20.7972 20.6729 20.7179 20.6409 20.6313C20.6088 20.5447 20.5955 20.4526 20.6018 20.3607V20.3607ZM14.6174 19.198C14.3013 19.2023 13.9998 19.3289 13.7794 19.55C13.559 19.7711 13.4376 20.0686 13.442 20.377C13.4465 20.6853 13.5763 20.9793 13.803 21.1943C14.0297 21.4093 14.3347 21.5277 14.6508 21.5234C14.9938 21.5405 15.3312 21.4328 15.5974 21.2211L15.3589 20.863C15.1707 21.0102 14.9374 21.092 14.6961 21.0955C14.5322 21.1092 14.3692 21.0601 14.2419 20.9585C14.1146 20.8569 14.0329 20.7108 14.0142 20.5514H15.707C15.707 20.4909 15.707 20.4304 15.707 20.3653C15.707 19.6677 15.2636 19.2026 14.6246 19.2026L14.6174 19.198ZM14.6174 19.6305C14.6917 19.629 14.7654 19.6417 14.8346 19.668C14.9038 19.6942 14.9669 19.7336 15.0205 19.7837C15.0741 19.8338 15.117 19.8937 15.1469 19.96C15.1767 20.0262 15.1929 20.0976 15.1944 20.17H14.0023C14.011 20.0207 14.0792 19.8807 14.1924 19.7798C14.3055 19.679 14.4547 19.6254 14.6079 19.6305H14.6174ZM27.0415 20.3653V18.3608H26.5647V19.5235C26.4804 19.4178 26.3717 19.3332 26.2473 19.2766C26.1229 19.22 25.9865 19.193 25.8494 19.198C25.5332 19.198 25.23 19.3205 25.0065 19.5385C24.7829 19.7566 24.6573 20.0523 24.6573 20.3607C24.6573 20.669 24.7829 20.9648 25.0065 21.1828C25.23 21.4009 25.5332 21.5234 25.8494 21.5234C25.9865 21.5283 26.1229 21.5014 26.2473 21.4447C26.3717 21.3881 26.4804 21.3035 26.5647 21.1978V21.4676H27.0415V20.3653ZM27.8688 21.1536C27.8998 21.1533 27.9306 21.1588 27.9594 21.1699C27.9868 21.1808 28.0119 21.1966 28.0333 21.2164C28.0543 21.2365 28.0712 21.2601 28.0834 21.2862C28.0955 21.3133 28.1017 21.3426 28.1017 21.3722C28.1017 21.4018 28.0955 21.4311 28.0834 21.4583C28.0712 21.4843 28.0543 21.508 28.0333 21.528C28.0119 21.5479 27.9868 21.5636 27.9594 21.5745C27.9309 21.5868 27.9 21.5931 27.8688 21.5931C27.8236 21.5928 27.7794 21.5799 27.7415 21.5561C27.7035 21.5322 27.6732 21.4983 27.6542 21.4583C27.6423 21.4311 27.6361 21.4018 27.6361 21.3722C27.6361 21.3426 27.6423 21.3134 27.6542 21.2862C27.6664 21.2601 27.6833 21.2365 27.7043 21.2164C27.7258 21.1966 27.7508 21.1808 27.7782 21.1699C27.8093 21.1579 27.8426 21.1523 27.876 21.1536H27.8688ZM27.8688 21.5466C27.8926 21.5468 27.9162 21.542 27.9379 21.5327C27.9585 21.5237 27.9771 21.5111 27.9928 21.4955C28.0226 21.4637 28.0392 21.4222 28.0392 21.3792C28.0392 21.3361 28.0226 21.2947 27.9928 21.2629C27.9771 21.2472 27.9585 21.2346 27.9379 21.2257C27.9161 21.2164 27.8926 21.2117 27.8688 21.2118C27.845 21.2119 27.8215 21.2166 27.7997 21.2257C27.7782 21.2343 27.7588 21.2469 27.7424 21.2629C27.7126 21.2947 27.6961 21.3361 27.6961 21.3792C27.6961 21.4222 27.7126 21.4637 27.7424 21.4955C27.7588 21.5114 27.7783 21.524 27.7997 21.5327C27.8237 21.5428 27.8498 21.5476 27.876 21.5466H27.8688ZM27.8831 21.2699C27.9054 21.2688 27.9273 21.2754 27.9451 21.2885C27.9524 21.2944 27.9582 21.3019 27.9619 21.3104C27.9656 21.3189 27.9672 21.3281 27.9666 21.3373C27.9669 21.3451 27.9656 21.3528 27.9627 21.36C27.9599 21.3672 27.9555 21.3737 27.9499 21.3792C27.9361 21.3914 27.9184 21.3988 27.8998 21.4001L27.9689 21.4769H27.9141L27.8497 21.4001H27.8283V21.4769H27.783V21.2722L27.8831 21.2699ZM27.8307 21.3094V21.3652H27.8831C27.8924 21.368 27.9024 21.368 27.9117 21.3652C27.9134 21.362 27.9143 21.3584 27.9143 21.3548C27.9143 21.3511 27.9134 21.3476 27.9117 21.3443C27.9134 21.3411 27.9143 21.3375 27.9143 21.3338C27.9143 21.3302 27.9134 21.3266 27.9117 21.3234C27.9024 21.3207 27.8924 21.3207 27.8831 21.3234L27.8307 21.3094ZM25.208 20.3653C25.216 20.2345 25.2629 20.1087 25.3432 20.0036C25.4234 19.8984 25.5335 19.8185 25.6597 19.7735C25.786 19.7286 25.9229 19.7207 26.0538 19.7507C26.1846 19.7807 26.3036 19.8474 26.396 19.9426C26.4885 20.0377 26.5504 20.1572 26.5741 20.2862C26.5978 20.4152 26.5824 20.5482 26.5296 20.6687C26.4768 20.7893 26.389 20.8922 26.2771 20.9647C26.1651 21.0372 26.0339 21.0762 25.8995 21.0769C25.8051 21.0781 25.7114 21.0602 25.6245 21.0243C25.5375 20.9885 25.4591 20.9355 25.3941 20.8686C25.3292 20.8018 25.2791 20.7226 25.2471 20.636C25.2151 20.5493 25.2018 20.4572 25.208 20.3653V20.3653ZM8.46384 20.3653V19.2538H7.96792V19.5235C7.88371 19.4178 7.77493 19.3332 7.65056 19.2766C7.5262 19.22 7.38981 19.193 7.25267 19.198C6.9365 19.198 6.63329 19.3205 6.40973 19.5385C6.18616 19.7566 6.06057 20.0523 6.06057 20.3607C6.06057 20.669 6.18616 20.9648 6.40973 21.1828C6.63329 21.4009 6.9365 21.5234 7.25267 21.5234C7.38981 21.5283 7.5262 21.5014 7.65056 21.4447C7.77493 21.3881 7.88371 21.3035 7.96792 21.1978V21.4676H8.46384V20.3653ZM6.61847 20.3653C6.62638 20.2345 6.67335 20.1087 6.7536 20.0036C6.83385 19.8984 6.94388 19.8185 7.07014 19.7735C7.1964 19.7286 7.33337 19.7207 7.4642 19.7507C7.59502 19.7807 7.71398 19.8474 7.80643 19.9426C7.89888 20.0377 7.96078 20.1572 7.98451 20.2862C8.00825 20.4152 7.99277 20.5482 7.94 20.6687C7.88723 20.7893 7.79946 20.8922 7.6875 20.9647C7.57554 21.0372 7.44428 21.0762 7.30989 21.0769C7.21509 21.0787 7.12094 21.0613 7.03341 21.0257C6.94587 20.9902 6.86687 20.9373 6.80142 20.8704C6.73596 20.8035 6.68547 20.724 6.65316 20.6371C6.62084 20.5501 6.60741 20.4576 6.6137 20.3653H6.61847Z" fill="white"></path> <path d="M18.2544 2.31396H10.7441V15.478H18.2544V2.31396Z" fill="#FF5F00"></path> <path d="M11.2217 8.89796C11.2203 7.62998 11.5147 6.37833 12.0827 5.23777C12.6507 4.09721 13.4773 3.09765 14.5 2.31478C13.2337 1.34422 11.7131 0.740677 10.1118 0.573147C8.51057 0.405617 6.89329 0.680854 5.44482 1.3674C3.99635 2.05395 2.77513 3.1241 1.92075 4.45556C1.06636 5.78702 0.613281 7.32606 0.613281 8.89679C0.613281 10.4675 1.06636 12.0066 1.92075 13.338C2.77513 14.6695 3.99635 15.7396 5.44482 16.4262C6.89329 17.1127 8.51057 17.388 10.1118 17.2204C11.7131 17.0529 13.2337 16.4494 14.5 15.4788C13.4776 14.6962 12.6512 13.697 12.0832 12.5569C11.5153 11.4167 11.2207 10.1655 11.2217 8.89796V8.89796Z" fill="#EB001B"></path> <path d="M28.3879 8.89697C28.3879 10.4678 27.9347 12.007 27.0802 13.3385C26.2256 14.67 25.0042 15.7401 23.5556 16.4266C22.1069 17.113 20.4895 17.3881 18.8881 17.2203C17.2868 17.0525 15.7661 16.4487 14.5 15.4778C15.5219 14.6945 16.3481 13.695 16.9162 12.5548C17.4843 11.4147 17.7795 10.1635 17.7795 8.89581C17.7795 7.62811 17.4843 6.37696 16.9162 5.23677C16.3481 4.09658 15.5219 3.09712 14.5 2.3138C15.7661 1.34293 17.2868 0.739095 18.8881 0.571325C20.4895 0.403554 22.1069 0.678613 23.5556 1.36506C25.0042 2.05151 26.2256 3.12165 27.0802 4.45315C27.9347 5.78466 28.3879 7.3238 28.3879 8.89465V8.89697Z" fill="#F79E1B"></path> <path d="M27.5681 14.0824V13.8126H27.6802V13.7568H27.3965V13.8126H27.5181V14.0824H27.5681ZM28.1189 14.0824V13.7568H28.0331L27.9329 13.9894L27.8328 13.7568H27.7565V14.0824H27.8185V13.8382L27.9115 14.0498H27.9758L28.0688 13.8382V14.0847L28.1189 14.0824Z" fill="#F79E1B"></path> </svg> 