<?xml version="1.0" encoding="UTF-8"?> <svg xmlns="http://www.w3.org/2000/svg" width="21" height="23" viewBox="0 0 21 23" fill="none"> <g clip-path="url(#clip0_18136_15089)"> <path d="M16.5477 14.3303C16.9094 14.4729 17.0485 15.0285 17.0762 15.2709C17.1321 15.713 17.0071 15.884 16.8679 15.884C16.7288 15.884 16.5338 15.713 16.3255 15.371C16.1168 15.0285 16.0333 14.6439 16.1448 14.4441C16.214 14.3156 16.367 14.2589 16.5481 14.3303H16.5477ZM14.4342 15.9412C14.6567 15.9412 14.907 16.0409 15.1296 16.2403C15.5605 16.6111 15.6858 17.0386 15.4632 17.3523C15.3379 17.5092 15.1296 17.6088 14.8932 17.6088C14.6567 17.6088 14.4065 17.5233 14.2397 17.3664C13.8502 17.0245 13.7392 16.4538 13.989 16.1406C14.0867 16.0121 14.2397 15.9412 14.4342 15.9412ZM9.56745 20.0607C4.28279 20.0607 0 15.67 0 10.2533C0 4.83651 4.28322 0.446289 9.56702 0.446289C14.8512 0.446289 19.1344 4.83695 19.1344 10.2533C19.1344 12.0919 18.634 13.8172 17.7859 15.2855C17.7579 15.328 17.6883 15.3138 17.6745 15.2567C17.3407 12.8478 15.9084 11.5217 13.8226 11.123C13.6415 11.0942 13.6138 10.9803 13.8502 10.952C14.4899 10.8948 15.3937 10.909 15.8665 10.9945C15.8942 10.7521 15.9084 10.4956 15.9084 10.2391C15.9084 6.661 13.0714 3.7528 9.58085 3.7528C6.09074 3.7528 3.25369 6.661 3.25369 10.2391C3.25369 13.8172 6.09074 16.7254 9.58128 16.7254H9.87301C9.7739 16.1467 9.73191 15.5592 9.74767 14.9718C9.76194 14.5726 9.84535 14.5155 10.0122 14.8291C10.8883 16.3829 12.14 17.7798 14.5872 18.3358C16.5895 18.7922 18.592 19.3195 20.7475 22.1276C20.942 22.3699 20.6502 22.6264 20.4277 22.4271C18.2307 20.431 16.2283 19.7754 14.4065 19.7754C12.3621 19.79 10.9717 20.0607 9.56702 20.0607H9.56745Z" fill="#FF8C00"></path> </g> <defs> <clipPath id="clip0_18136_15089"> <rect width="20.8113" height="22.1732" fill="white" transform="translate(0 0.446289)"></rect> </clipPath> </defs> </svg> 