<?xml version="1.0" encoding="UTF-8"?> <svg xmlns="http://www.w3.org/2000/svg" width="40" height="12" viewBox="0 0 40 12" fill="none"> <path d="M14.4414 11.6292L16.442 0.375977H19.5679L17.6298 11.6292H14.4414Z" fill="white"></path> <path d="M14.4414 11.6292L17.0046 0.375977H19.5679L17.6298 11.6292H14.4414Z" fill="white"></path> <path d="M28.9441 0.500142C28.319 0.250071 27.3187 0 26.0683 0C22.9424 0 20.6918 1.56294 20.6918 3.81358C20.6918 5.50156 22.2547 6.37681 23.5051 6.93947C24.7554 7.50213 25.1305 7.87724 25.1305 8.37738C25.1305 9.1276 24.1303 9.5027 23.255 9.5027C22.0047 9.5027 21.317 9.31515 20.2542 8.87753L19.8165 8.68997L19.3789 11.2532C20.1291 11.5658 21.5045 11.8784 22.9424 11.8784C26.2559 11.8784 28.444 10.3154 28.444 7.93976C28.444 6.62689 27.6313 5.6266 25.7557 4.81387C24.6304 4.25121 23.9427 3.93862 23.9427 3.37596C23.9427 2.87582 24.5054 2.37568 25.7557 2.37568C26.8185 2.37568 27.5687 2.56323 28.1314 2.8133L28.444 2.93834L28.9441 0.500142Z" fill="white"></path> <path d="M28.9441 0.500142C28.319 0.250071 27.3187 0 26.0683 0C22.9424 0 21.2544 1.56294 21.2544 3.81358C21.2544 5.50156 22.2547 6.37681 23.5051 6.93947C24.7554 7.50213 25.1305 7.87724 25.1305 8.37738C25.1305 9.1276 24.1303 9.5027 23.255 9.5027C22.0047 9.5027 21.317 9.31515 20.2542 8.87753L19.8165 8.68997L19.3789 11.2532C20.1291 11.5658 21.5045 11.8784 22.9424 11.8784C26.2559 11.8784 28.444 10.3154 28.444 7.93976C28.444 6.62689 27.6313 5.6266 25.7557 4.81387C24.6304 4.25121 23.9427 3.93862 23.9427 3.37596C23.9427 2.87582 24.5054 2.37568 25.7557 2.37568C26.8185 2.37568 27.5687 2.56323 28.1314 2.8133L28.444 2.93834L28.9441 0.500142Z" fill="white"></path> <path d="M34.3221 0.375977C33.5719 0.375977 33.0092 0.438495 32.6966 1.18871L28.0078 11.6292H31.3838L32.009 9.75365H36.0101L36.3852 11.6292H39.3861L36.7603 0.375977H34.3221ZM32.8842 7.87811C33.0718 7.31545 34.1346 4.56467 34.1346 4.56467C34.1346 4.56467 34.3846 3.87697 34.5722 3.43935L34.7597 4.50215C34.7597 4.50215 35.3849 7.31545 35.5099 7.94063H32.8842V7.87811Z" fill="white"></path> <path d="M35.0723 0.375977C34.3221 0.375977 33.7595 0.438495 33.4469 1.18871L28.0078 11.6292H31.3838L32.009 9.75365H36.0101L36.3852 11.6292H39.3861L36.7603 0.375977H35.0723ZM32.8842 7.87811C33.1343 7.25294 34.1346 4.56467 34.1346 4.56467C34.1346 4.56467 34.3846 3.87697 34.5722 3.43935L34.7597 4.50215C34.7597 4.50215 35.3849 7.31545 35.5099 7.94063H32.8842V7.87811Z" fill="white"></path> <path d="M8.68884 8.2527L8.37625 6.62724C7.81359 4.75171 6.00057 2.68862 4 1.68834L6.8133 11.6912H10.1893L15.2532 0.437988H11.8772L8.68884 8.2527Z" fill="white"></path> <path d="M8.68884 8.2527L8.37625 6.62724C7.81359 4.75171 6.00057 2.68862 4 1.68834L6.8133 11.6912H10.1893L15.2532 0.437988H12.5024L8.68884 8.2527Z" fill="white"></path> <path d="M0 0.375977L0.56266 0.501013C4.5638 1.43878 7.31458 3.81446 8.37739 6.62776L7.25207 1.31374C7.06451 0.56353 6.50185 0.375977 5.81416 0.375977H0Z" fill="white"></path> <path d="M0 0.375977C4.00114 1.31374 7.31458 3.75194 8.37739 6.56524L7.31458 2.12648C7.12703 1.37626 6.50185 0.938638 5.81416 0.938638L0 0.375977Z" fill="white"></path> <path d="M0 0.375977C4.00114 1.31374 7.31458 3.75194 8.37739 6.56524L7.62717 4.12704C7.43962 3.37683 7.18955 2.62662 6.3143 2.31403L0 0.375977Z" fill="white"></path> <path d="M11.8167 7.87776L9.69106 5.75215L8.69077 8.12783L8.4407 6.56488C7.87804 4.68935 6.06502 2.62626 4.06445 1.62598L6.87775 11.6288H10.2537L11.8167 7.87776Z" fill="white"></path> <path d="M17.6337 11.6282L14.9455 8.87744L14.4453 11.6282H17.6337Z" fill="white"></path> <path d="M24.8219 7.75244C25.0719 8.00251 25.197 8.19007 25.1345 8.44014C25.1345 9.19035 24.1342 9.56546 23.2589 9.56546C22.0086 9.56546 21.3209 9.37791 20.2581 8.94028L19.8204 8.75273L19.3828 11.316C20.133 11.6285 21.5084 11.9411 22.9463 11.9411C24.9469 11.9411 26.5724 11.3785 27.5101 10.3782L24.8219 7.75244Z" fill="white"></path> <path d="M28.4473 11.6288H31.3856L32.0108 9.75326H36.0119L36.387 11.6288H39.3879L38.3251 7.065L34.574 3.43896L34.7616 4.43925C34.7616 4.43925 35.3867 7.25255 35.5118 7.87773H32.886C33.1361 7.25255 34.1364 4.56429 34.1364 4.56429C34.1364 4.56429 34.3865 3.87659 34.574 3.43896" fill="white"></path> </svg> 